<mxfile host="app.diagrams.net" agent="Mozilla/5.0 (Windows NT 10.0; Win64; x64) AppleWebKit/537.36 (KHTML, like Gecko) Chrome/129.0.0.0 Safari/537.36" version="24.7.15">
  <diagram name="PÃ¡gina-1" id="x1hI2ux44L_oSpZ-0_-K">
    <mxGraphModel dx="1735" dy="1949" grid="1" gridSize="10" guides="1" tooltips="1" connect="1" arrows="1" fold="1" page="1" pageScale="1" pageWidth="827" pageHeight="1169" math="0" shadow="0">
      <root>
        <mxCell id="0" />
        <mxCell id="1" parent="0" />
        <mxCell id="y5vXElkAQ2uAgiDjMxOz-1" value="ServiceVehiculo" style="swimlane;fontStyle=1;align=center;verticalAlign=top;childLayout=stackLayout;horizontal=1;startSize=26;horizontalStack=0;resizeParent=1;resizeParentMax=0;resizeLast=0;collapsible=1;marginBottom=0;whiteSpace=wrap;html=1;" vertex="1" parent="1">
          <mxGeometry x="294" y="-1150" width="240" height="130" as="geometry">
            <mxRectangle x="294" y="-1150" width="130" height="30" as="alternateBounds" />
          </mxGeometry>
        </mxCell>
        <mxCell id="y5vXElkAQ2uAgiDjMxOz-2" value="- inventario: List &amp;lt;Vehiculo&amp;gt;" style="text;strokeColor=none;fillColor=none;align=left;verticalAlign=top;spacingLeft=4;spacingRight=4;overflow=hidden;rotatable=0;points=[[0,0.5],[1,0.5]];portConstraint=eastwest;whiteSpace=wrap;html=1;" vertex="1" parent="y5vXElkAQ2uAgiDjMxOz-1">
          <mxGeometry y="26" width="240" height="26" as="geometry" />
        </mxCell>
        <mxCell id="y5vXElkAQ2uAgiDjMxOz-3" value="" style="line;strokeWidth=1;fillColor=none;align=left;verticalAlign=middle;spacingTop=-1;spacingLeft=3;spacingRight=3;rotatable=0;labelPosition=right;points=[];portConstraint=eastwest;strokeColor=inherit;" vertex="1" parent="y5vXElkAQ2uAgiDjMxOz-1">
          <mxGeometry y="52" width="240" height="8" as="geometry" />
        </mxCell>
        <mxCell id="y5vXElkAQ2uAgiDjMxOz-4" value="+ agregarVehiculo(): void&lt;div&gt;+ mostrarInventario(): void&lt;/div&gt;&lt;div&gt;+ modificarPrecio(double): List &amp;lt;Vehiculo&amp;gt;&lt;/div&gt;" style="text;strokeColor=none;fillColor=none;align=left;verticalAlign=top;spacingLeft=4;spacingRight=4;overflow=hidden;rotatable=0;points=[[0,0.5],[1,0.5]];portConstraint=eastwest;whiteSpace=wrap;html=1;" vertex="1" parent="y5vXElkAQ2uAgiDjMxOz-1">
          <mxGeometry y="60" width="240" height="70" as="geometry" />
        </mxCell>
        <mxCell id="y5vXElkAQ2uAgiDjMxOz-5" value="&lt;div&gt;&lt;span style=&quot;background-color: initial;&quot;&gt;&amp;lt;&amp;lt;Abstract&amp;gt;&amp;gt;&lt;/span&gt;&lt;/div&gt;&lt;div&gt;&lt;span style=&quot;background-color: initial;&quot;&gt;Vehiculo&lt;/span&gt;&lt;br&gt;&lt;/div&gt;" style="swimlane;fontStyle=1;align=center;verticalAlign=top;childLayout=stackLayout;horizontal=1;startSize=50;horizontalStack=0;resizeParent=1;resizeParentMax=0;resizeLast=0;collapsible=1;marginBottom=0;whiteSpace=wrap;html=1;" vertex="1" parent="1">
          <mxGeometry x="321" y="-960" width="186" height="178" as="geometry" />
        </mxCell>
        <mxCell id="y5vXElkAQ2uAgiDjMxOz-6" value="# modelo: String&lt;div&gt;# precio: double&lt;/div&gt;&lt;div&gt;# tipo: TipoVehiculo&lt;/div&gt;" style="text;strokeColor=none;fillColor=none;align=left;verticalAlign=top;spacingLeft=4;spacingRight=4;overflow=hidden;rotatable=0;points=[[0,0.5],[1,0.5]];portConstraint=eastwest;whiteSpace=wrap;html=1;" vertex="1" parent="y5vXElkAQ2uAgiDjMxOz-5">
          <mxGeometry y="50" width="186" height="50" as="geometry" />
        </mxCell>
        <mxCell id="y5vXElkAQ2uAgiDjMxOz-7" value="" style="line;strokeWidth=1;fillColor=none;align=left;verticalAlign=middle;spacingTop=-1;spacingLeft=3;spacingRight=3;rotatable=0;labelPosition=right;points=[];portConstraint=eastwest;strokeColor=inherit;" vertex="1" parent="y5vXElkAQ2uAgiDjMxOz-5">
          <mxGeometry y="100" width="186" height="24" as="geometry" />
        </mxCell>
        <mxCell id="y5vXElkAQ2uAgiDjMxOz-8" value="+ mostrarInfo(): String&lt;div&gt;+ actualizarPrecio(): double&lt;/div&gt;" style="text;strokeColor=none;fillColor=none;align=left;verticalAlign=top;spacingLeft=4;spacingRight=4;overflow=hidden;rotatable=0;points=[[0,0.5],[1,0.5]];portConstraint=eastwest;whiteSpace=wrap;html=1;" vertex="1" parent="y5vXElkAQ2uAgiDjMxOz-5">
          <mxGeometry y="124" width="186" height="54" as="geometry" />
        </mxCell>
        <mxCell id="y5vXElkAQ2uAgiDjMxOz-9" value="Utilitario" style="swimlane;fontStyle=1;align=center;verticalAlign=top;childLayout=stackLayout;horizontal=1;startSize=26;horizontalStack=0;resizeParent=1;resizeParentMax=0;resizeLast=0;collapsible=1;marginBottom=0;whiteSpace=wrap;html=1;" vertex="1" parent="1">
          <mxGeometry x="30" y="-710" width="210" height="130" as="geometry" />
        </mxCell>
        <mxCell id="y5vXElkAQ2uAgiDjMxOz-10" value="- capacidadCarga: double" style="text;strokeColor=none;fillColor=none;align=left;verticalAlign=top;spacingLeft=4;spacingRight=4;overflow=hidden;rotatable=0;points=[[0,0.5],[1,0.5]];portConstraint=eastwest;whiteSpace=wrap;html=1;" vertex="1" parent="y5vXElkAQ2uAgiDjMxOz-9">
          <mxGeometry y="26" width="210" height="26" as="geometry" />
        </mxCell>
        <mxCell id="y5vXElkAQ2uAgiDjMxOz-11" value="" style="line;strokeWidth=1;fillColor=none;align=left;verticalAlign=middle;spacingTop=-1;spacingLeft=3;spacingRight=3;rotatable=0;labelPosition=right;points=[];portConstraint=eastwest;strokeColor=inherit;" vertex="1" parent="y5vXElkAQ2uAgiDjMxOz-9">
          <mxGeometry y="52" width="210" height="8" as="geometry" />
        </mxCell>
        <mxCell id="y5vXElkAQ2uAgiDjMxOz-12" value="&lt;span style=&quot;background-color: initial;&quot;&gt;+ mostrarInfo(): String&lt;/span&gt;&lt;div&gt;+ actualizarPrecio(double): double&lt;br&gt;&lt;div&gt;&lt;br&gt;&lt;/div&gt;&lt;/div&gt;" style="text;strokeColor=none;fillColor=none;align=left;verticalAlign=top;spacingLeft=4;spacingRight=4;overflow=hidden;rotatable=0;points=[[0,0.5],[1,0.5]];portConstraint=eastwest;whiteSpace=wrap;html=1;" vertex="1" parent="y5vXElkAQ2uAgiDjMxOz-9">
          <mxGeometry y="60" width="210" height="70" as="geometry" />
        </mxCell>
        <mxCell id="y5vXElkAQ2uAgiDjMxOz-13" value="&amp;lt;&amp;lt;Abstract&amp;gt;&amp;gt;&lt;div&gt;Automovil&lt;/div&gt;" style="swimlane;fontStyle=1;align=center;verticalAlign=top;childLayout=stackLayout;horizontal=1;startSize=50;horizontalStack=0;resizeParent=1;resizeParentMax=0;resizeLast=0;collapsible=1;marginBottom=0;whiteSpace=wrap;html=1;" vertex="1" parent="1">
          <mxGeometry x="334" y="-710" width="186" height="90" as="geometry" />
        </mxCell>
        <mxCell id="y5vXElkAQ2uAgiDjMxOz-14" value="# maximoAirbag: int" style="text;strokeColor=none;fillColor=none;align=left;verticalAlign=top;spacingLeft=4;spacingRight=4;overflow=hidden;rotatable=0;points=[[0,0.5],[1,0.5]];portConstraint=eastwest;whiteSpace=wrap;html=1;" vertex="1" parent="y5vXElkAQ2uAgiDjMxOz-13">
          <mxGeometry y="50" width="186" height="40" as="geometry" />
        </mxCell>
        <mxCell id="y5vXElkAQ2uAgiDjMxOz-17" value="Motocicleta" style="swimlane;fontStyle=1;align=center;verticalAlign=top;childLayout=stackLayout;horizontal=1;startSize=26;horizontalStack=0;resizeParent=1;resizeParentMax=0;resizeLast=0;collapsible=1;marginBottom=0;whiteSpace=wrap;html=1;" vertex="1" parent="1">
          <mxGeometry x="610" y="-710" width="200" height="130" as="geometry" />
        </mxCell>
        <mxCell id="y5vXElkAQ2uAgiDjMxOz-18" value="- cilindrada: double" style="text;strokeColor=none;fillColor=none;align=left;verticalAlign=top;spacingLeft=4;spacingRight=4;overflow=hidden;rotatable=0;points=[[0,0.5],[1,0.5]];portConstraint=eastwest;whiteSpace=wrap;html=1;" vertex="1" parent="y5vXElkAQ2uAgiDjMxOz-17">
          <mxGeometry y="26" width="200" height="26" as="geometry" />
        </mxCell>
        <mxCell id="y5vXElkAQ2uAgiDjMxOz-19" value="" style="line;strokeWidth=1;fillColor=none;align=left;verticalAlign=middle;spacingTop=-1;spacingLeft=3;spacingRight=3;rotatable=0;labelPosition=right;points=[];portConstraint=eastwest;strokeColor=inherit;" vertex="1" parent="y5vXElkAQ2uAgiDjMxOz-17">
          <mxGeometry y="52" width="200" height="8" as="geometry" />
        </mxCell>
        <mxCell id="y5vXElkAQ2uAgiDjMxOz-20" value="+ competirEnPista(): void&lt;div&gt;+ mostrarInfo(): String&lt;/div&gt;&lt;div&gt;+ actualizarPrecio(double): double&lt;br&gt;&lt;div&gt;&lt;br&gt;&lt;/div&gt;&lt;/div&gt;" style="text;strokeColor=none;fillColor=none;align=left;verticalAlign=top;spacingLeft=4;spacingRight=4;overflow=hidden;rotatable=0;points=[[0,0.5],[1,0.5]];portConstraint=eastwest;whiteSpace=wrap;html=1;" vertex="1" parent="y5vXElkAQ2uAgiDjMxOz-17">
          <mxGeometry y="60" width="200" height="70" as="geometry" />
        </mxCell>
        <mxCell id="y5vXElkAQ2uAgiDjMxOz-21" value="Carrera" style="swimlane;fontStyle=1;align=center;verticalAlign=top;childLayout=stackLayout;horizontal=1;startSize=26;horizontalStack=0;resizeParent=1;resizeParentMax=0;resizeLast=0;collapsible=1;marginBottom=0;whiteSpace=wrap;html=1;" vertex="1" parent="1">
          <mxGeometry x="210" y="-490" width="200" height="130" as="geometry" />
        </mxCell>
        <mxCell id="y5vXElkAQ2uAgiDjMxOz-22" value="- velocidadMax: double" style="text;strokeColor=none;fillColor=none;align=left;verticalAlign=top;spacingLeft=4;spacingRight=4;overflow=hidden;rotatable=0;points=[[0,0.5],[1,0.5]];portConstraint=eastwest;whiteSpace=wrap;html=1;" vertex="1" parent="y5vXElkAQ2uAgiDjMxOz-21">
          <mxGeometry y="26" width="200" height="26" as="geometry" />
        </mxCell>
        <mxCell id="y5vXElkAQ2uAgiDjMxOz-23" value="" style="line;strokeWidth=1;fillColor=none;align=left;verticalAlign=middle;spacingTop=-1;spacingLeft=3;spacingRight=3;rotatable=0;labelPosition=right;points=[];portConstraint=eastwest;strokeColor=inherit;" vertex="1" parent="y5vXElkAQ2uAgiDjMxOz-21">
          <mxGeometry y="52" width="200" height="8" as="geometry" />
        </mxCell>
        <mxCell id="y5vXElkAQ2uAgiDjMxOz-24" value="+ competirEnPista(): void&lt;div&gt;+ mostrarInfo(): String&lt;/div&gt;&lt;div&gt;+ actualizarPrecio(double): double&lt;br&gt;&lt;div&gt;&lt;br&gt;&lt;/div&gt;&lt;/div&gt;" style="text;strokeColor=none;fillColor=none;align=left;verticalAlign=top;spacingLeft=4;spacingRight=4;overflow=hidden;rotatable=0;points=[[0,0.5],[1,0.5]];portConstraint=eastwest;whiteSpace=wrap;html=1;" vertex="1" parent="y5vXElkAQ2uAgiDjMxOz-21">
          <mxGeometry y="60" width="200" height="70" as="geometry" />
        </mxCell>
        <mxCell id="y5vXElkAQ2uAgiDjMxOz-29" value="Urbano" style="swimlane;fontStyle=1;align=center;verticalAlign=top;childLayout=stackLayout;horizontal=1;startSize=26;horizontalStack=0;resizeParent=1;resizeParentMax=0;resizeLast=0;collapsible=1;marginBottom=0;whiteSpace=wrap;html=1;" vertex="1" parent="1">
          <mxGeometry x="480" y="-490" width="200" height="130" as="geometry" />
        </mxCell>
        <mxCell id="y5vXElkAQ2uAgiDjMxOz-30" value="- cantidadOcup: int" style="text;strokeColor=none;fillColor=none;align=left;verticalAlign=top;spacingLeft=4;spacingRight=4;overflow=hidden;rotatable=0;points=[[0,0.5],[1,0.5]];portConstraint=eastwest;whiteSpace=wrap;html=1;" vertex="1" parent="y5vXElkAQ2uAgiDjMxOz-29">
          <mxGeometry y="26" width="200" height="26" as="geometry" />
        </mxCell>
        <mxCell id="y5vXElkAQ2uAgiDjMxOz-31" value="" style="line;strokeWidth=1;fillColor=none;align=left;verticalAlign=middle;spacingTop=-1;spacingLeft=3;spacingRight=3;rotatable=0;labelPosition=right;points=[];portConstraint=eastwest;strokeColor=inherit;" vertex="1" parent="y5vXElkAQ2uAgiDjMxOz-29">
          <mxGeometry y="52" width="200" height="8" as="geometry" />
        </mxCell>
        <mxCell id="y5vXElkAQ2uAgiDjMxOz-32" value="&lt;div&gt;&lt;div&gt;+ mostrarInfo(): String&lt;/div&gt;&lt;div&gt;+ actualizarPrecio(double): double&lt;/div&gt;&lt;/div&gt;" style="text;strokeColor=none;fillColor=none;align=left;verticalAlign=top;spacingLeft=4;spacingRight=4;overflow=hidden;rotatable=0;points=[[0,0.5],[1,0.5]];portConstraint=eastwest;whiteSpace=wrap;html=1;" vertex="1" parent="y5vXElkAQ2uAgiDjMxOz-29">
          <mxGeometry y="60" width="200" height="70" as="geometry" />
        </mxCell>
        <mxCell id="y5vXElkAQ2uAgiDjMxOz-34" value="Â«interfaceÂ»&lt;br&gt;&lt;b&gt;Deportivo&lt;/b&gt;" style="swimlane;fontStyle=0;childLayout=stackLayout;horizontal=1;startSize=40;fillColor=none;horizontalStack=0;resizeParent=1;resizeParentMax=0;resizeLast=0;collapsible=1;marginBottom=0;whiteSpace=wrap;html=1;" vertex="1" parent="1">
          <mxGeometry x="640" y="-310" width="160" height="80" as="geometry" />
        </mxCell>
        <mxCell id="y5vXElkAQ2uAgiDjMxOz-35" value="+ competirEnPista(): Void" style="text;strokeColor=none;fillColor=none;align=left;verticalAlign=top;spacingLeft=4;spacingRight=4;overflow=hidden;rotatable=0;points=[[0,0.5],[1,0.5]];portConstraint=eastwest;whiteSpace=wrap;html=1;" vertex="1" parent="y5vXElkAQ2uAgiDjMxOz-34">
          <mxGeometry y="40" width="160" height="40" as="geometry" />
        </mxCell>
        <mxCell id="y5vXElkAQ2uAgiDjMxOz-48" value="" style="endArrow=diamondThin;endFill=0;endSize=24;html=1;rounded=0;entryX=0.5;entryY=0;entryDx=0;entryDy=0;" edge="1" parent="1" source="y5vXElkAQ2uAgiDjMxOz-4" target="y5vXElkAQ2uAgiDjMxOz-5">
          <mxGeometry width="160" relative="1" as="geometry">
            <mxPoint x="190" y="-930" as="sourcePoint" />
            <mxPoint x="350" y="-930" as="targetPoint" />
          </mxGeometry>
        </mxCell>
        <mxCell id="y5vXElkAQ2uAgiDjMxOz-49" value="Extends" style="endArrow=block;endSize=16;endFill=0;html=1;rounded=0;entryX=0.556;entryY=1.076;entryDx=0;entryDy=0;entryPerimeter=0;exitX=0.5;exitY=0;exitDx=0;exitDy=0;" edge="1" parent="1" source="y5vXElkAQ2uAgiDjMxOz-13" target="y5vXElkAQ2uAgiDjMxOz-8">
          <mxGeometry width="160" relative="1" as="geometry">
            <mxPoint x="190" y="-790" as="sourcePoint" />
            <mxPoint x="350" y="-790" as="targetPoint" />
          </mxGeometry>
        </mxCell>
        <mxCell id="y5vXElkAQ2uAgiDjMxOz-50" value="Extends" style="endArrow=block;endSize=16;endFill=0;html=1;rounded=0;exitX=0.5;exitY=0;exitDx=0;exitDy=0;" edge="1" parent="1" source="y5vXElkAQ2uAgiDjMxOz-9">
          <mxGeometry width="160" relative="1" as="geometry">
            <mxPoint x="190" y="-790" as="sourcePoint" />
            <mxPoint x="320" y="-780" as="targetPoint" />
          </mxGeometry>
        </mxCell>
        <mxCell id="y5vXElkAQ2uAgiDjMxOz-51" value="Extends" style="endArrow=block;endSize=16;endFill=0;html=1;rounded=0;exitX=0.5;exitY=0;exitDx=0;exitDy=0;entryX=1.031;entryY=1.055;entryDx=0;entryDy=0;entryPerimeter=0;" edge="1" parent="1" source="y5vXElkAQ2uAgiDjMxOz-17" target="y5vXElkAQ2uAgiDjMxOz-8">
          <mxGeometry width="160" relative="1" as="geometry">
            <mxPoint x="190" y="-790" as="sourcePoint" />
            <mxPoint x="350" y="-790" as="targetPoint" />
          </mxGeometry>
        </mxCell>
        <mxCell id="y5vXElkAQ2uAgiDjMxOz-52" value="Extends" style="endArrow=block;endSize=16;endFill=0;html=1;rounded=0;exitX=0.5;exitY=0;exitDx=0;exitDy=0;entryX=0.336;entryY=1.126;entryDx=0;entryDy=0;entryPerimeter=0;" edge="1" parent="1" source="y5vXElkAQ2uAgiDjMxOz-21" target="y5vXElkAQ2uAgiDjMxOz-14">
          <mxGeometry width="160" relative="1" as="geometry">
            <mxPoint x="190" y="-640" as="sourcePoint" />
            <mxPoint x="350" y="-640" as="targetPoint" />
          </mxGeometry>
        </mxCell>
        <mxCell id="y5vXElkAQ2uAgiDjMxOz-53" value="Extends" style="endArrow=block;endSize=16;endFill=0;html=1;rounded=0;exitX=0.5;exitY=0;exitDx=0;exitDy=0;entryX=0.693;entryY=1.097;entryDx=0;entryDy=0;entryPerimeter=0;" edge="1" parent="1" source="y5vXElkAQ2uAgiDjMxOz-29" target="y5vXElkAQ2uAgiDjMxOz-14">
          <mxGeometry width="160" relative="1" as="geometry">
            <mxPoint x="190" y="-640" as="sourcePoint" />
            <mxPoint x="350" y="-640" as="targetPoint" />
          </mxGeometry>
        </mxCell>
        <mxCell id="y5vXElkAQ2uAgiDjMxOz-54" value="" style="endArrow=block;dashed=1;endFill=0;endSize=12;html=1;rounded=0;exitX=0.498;exitY=1.032;exitDx=0;exitDy=0;exitPerimeter=0;entryX=0.5;entryY=0;entryDx=0;entryDy=0;" edge="1" parent="1" source="y5vXElkAQ2uAgiDjMxOz-20" target="y5vXElkAQ2uAgiDjMxOz-34">
          <mxGeometry width="160" relative="1" as="geometry">
            <mxPoint x="190" y="-500" as="sourcePoint" />
            <mxPoint x="350" y="-500" as="targetPoint" />
          </mxGeometry>
        </mxCell>
        <mxCell id="y5vXElkAQ2uAgiDjMxOz-55" value="" style="endArrow=block;dashed=1;endFill=0;endSize=12;html=1;rounded=0;exitX=0.496;exitY=1.098;exitDx=0;exitDy=0;exitPerimeter=0;entryX=-0.009;entryY=0.045;entryDx=0;entryDy=0;entryPerimeter=0;" edge="1" parent="1" source="y5vXElkAQ2uAgiDjMxOz-24" target="y5vXElkAQ2uAgiDjMxOz-35">
          <mxGeometry width="160" relative="1" as="geometry">
            <mxPoint x="190" y="-500" as="sourcePoint" />
            <mxPoint x="350" y="-500" as="targetPoint" />
          </mxGeometry>
        </mxCell>
      </root>
    </mxGraphModel>
  </diagram>
</mxfile>
